<?xml version="1.0" encoding="UTF-8"?>
<svg xmlns="http://www.w3.org/2000/svg" width="900" height="480" viewBox="0 0 900 480">
<rect width="900" height="480" fill="#fff"/>
<text x="450.0" y="22.0" text-anchor="middle" font-family="Georgia, 'Times New Roman', serif" font-size="16" font-weight="bold" fill="#111">Net settlement by month</text>
<line x1="86" y1="426.0" x2="876" y2="426.0" stroke="#ddd" stroke-width="1"/>
<text x="78.0" y="430.0" text-anchor="end" font-family="Georgia, 'Times New Roman', serif" font-size="12" font-weight="normal" fill="#111">-10,000</text>
<line x1="86" y1="347.6" x2="876" y2="347.6" stroke="#333" stroke-width="1"/>
<text x="78.0" y="351.6" text-anchor="end" font-family="Georgia, 'Times New Roman', serif" font-size="12" font-weight="normal" fill="#111">0</text>
<line x1="86" y1="269.2" x2="876" y2="269.2" stroke="#ddd" stroke-width="1"/>
<text x="78.0" y="273.2" text-anchor="end" font-family="Georgia, 'Times New Roman', serif" font-size="12" font-weight="normal" fill="#111">10,000</text>
<line x1="86" y1="190.8" x2="876" y2="190.8" stroke="#ddd" stroke-width="1"/>
<text x="78.0" y="194.8" text-anchor="end" font-family="Georgia, 'Times New Roman', serif" font-size="12" font-weight="normal" fill="#111">20,000</text>
<line x1="86" y1="112.4" x2="876" y2="112.4" stroke="#ddd" stroke-width="1"/>
<text x="78.0" y="116.4" text-anchor="end" font-family="Georgia, 'Times New Roman', serif" font-size="12" font-weight="normal" fill="#111">30,000</text>
<line x1="86" y1="34.0" x2="876" y2="34.0" stroke="#ddd" stroke-width="1"/>
<text x="78.0" y="38.0" text-anchor="end" font-family="Georgia, 'Times New Roman', serif" font-size="12" font-weight="normal" fill="#111">40,000</text>
<line x1="118.9" y1="426" x2="118.9" y2="431" stroke="#333" stroke-width="1"/>
<text x="118.9" y="445.0" text-anchor="middle" font-family="Georgia, 'Times New Roman', serif" font-size="12" font-weight="normal" fill="#111">01</text>
<line x1="184.8" y1="426" x2="184.8" y2="431" stroke="#333" stroke-width="1"/>
<text x="184.8" y="445.0" text-anchor="middle" font-family="Georgia, 'Times New Roman', serif" font-size="12" font-weight="normal" fill="#111">02</text>
<line x1="250.6" y1="426" x2="250.6" y2="431" stroke="#333" stroke-width="1"/>
<text x="250.6" y="445.0" text-anchor="middle" font-family="Georgia, 'Times New Roman', serif" font-size="12" font-weight="normal" fill="#111">03</text>
<line x1="316.4" y1="426" x2="316.4" y2="431" stroke="#333" stroke-width="1"/>
<text x="316.4" y="445.0" text-anchor="middle" font-family="Georgia, 'Times New Roman', serif" font-size="12" font-weight="normal" fill="#111">04</text>
<line x1="382.2" y1="426" x2="382.2" y2="431" stroke="#333" stroke-width="1"/>
<text x="382.2" y="445.0" text-anchor="middle" font-family="Georgia, 'Times New Roman', serif" font-size="12" font-weight="normal" fill="#111">05</text>
<line x1="448.1" y1="426" x2="448.1" y2="431" stroke="#333" stroke-width="1"/>
<text x="448.1" y="445.0" text-anchor="middle" font-family="Georgia, 'Times New Roman', serif" font-size="12" font-weight="normal" fill="#111">06</text>
<line x1="513.9" y1="426" x2="513.9" y2="431" stroke="#333" stroke-width="1"/>
<text x="513.9" y="445.0" text-anchor="middle" font-family="Georgia, 'Times New Roman', serif" font-size="12" font-weight="normal" fill="#111">07</text>
<line x1="579.8" y1="426" x2="579.8" y2="431" stroke="#333" stroke-width="1"/>
<text x="579.8" y="445.0" text-anchor="middle" font-family="Georgia, 'Times New Roman', serif" font-size="12" font-weight="normal" fill="#111">08</text>
<line x1="645.6" y1="426" x2="645.6" y2="431" stroke="#333" stroke-width="1"/>
<text x="645.6" y="445.0" text-anchor="middle" font-family="Georgia, 'Times New Roman', serif" font-size="12" font-weight="normal" fill="#111">09</text>
<line x1="711.4" y1="426" x2="711.4" y2="431" stroke="#333" stroke-width="1"/>
<text x="711.4" y="445.0" text-anchor="middle" font-family="Georgia, 'Times New Roman', serif" font-size="12" font-weight="normal" fill="#111">10</text>
<line x1="777.2" y1="426" x2="777.2" y2="431" stroke="#333" stroke-width="1"/>
<text x="777.2" y="445.0" text-anchor="middle" font-family="Georgia, 'Times New Roman', serif" font-size="12" font-weight="normal" fill="#111">11</text>
<line x1="843.1" y1="426" x2="843.1" y2="431" stroke="#333" stroke-width="1"/>
<text x="843.1" y="445.0" text-anchor="middle" font-family="Georgia, 'Times New Roman', serif" font-size="12" font-weight="normal" fill="#111">12</text>
<line x1="86" y1="426" x2="876" y2="426" stroke="#333"/>
<line x1="86" y1="34" x2="86" y2="426" stroke="#333"/>
<text x="481.0" y="472.0" text-anchor="middle" font-family="Georgia, 'Times New Roman', serif" font-size="13" font-weight="normal" fill="#111">month</text>
<g transform="translate(16,230.0) rotate(-90)"><text x="0.0" y="0.0" text-anchor="middle" font-family="Georgia, 'Times New Roman', serif" font-size="13" font-weight="normal" fill="#111">currency</text></g>
<rect x="92.6" y="347.6" width="10.5" height="0.0" fill="#1f3b73" fill-opacity="0.85"/>
<rect x="158.4" y="347.6" width="10.5" height="0.0" fill="#1f3b73" fill-opacity="0.85"/>
<rect x="224.2" y="347.6" width="10.5" height="0.0" fill="#1f3b73" fill-opacity="0.85"/>
<rect x="290.1" y="347.6" width="10.5" height="0.0" fill="#1f3b73" fill-opacity="0.85"/>
<rect x="355.9" y="347.6" width="10.5" height="0.0" fill="#1f3b73" fill-opacity="0.85"/>
<rect x="421.7" y="347.6" width="10.5" height="0.0" fill="#1f3b73" fill-opacity="0.85"/>
<rect x="487.6" y="347.6" width="10.5" height="0.0" fill="#1f3b73" fill-opacity="0.85"/>
<rect x="553.4" y="347.6" width="10.5" height="0.0" fill="#1f3b73" fill-opacity="0.85"/>
<rect x="619.2" y="347.6" width="10.5" height="0.0" fill="#1f3b73" fill-opacity="0.85"/>
<rect x="685.1" y="347.6" width="10.5" height="0.0" fill="#1f3b73" fill-opacity="0.85"/>
<rect x="750.9" y="347.6" width="10.5" height="0.0" fill="#1f3b73" fill-opacity="0.85"/>
<rect x="816.7" y="347.6" width="10.5" height="0.0" fill="#1f3b73" fill-opacity="0.85"/>
<rect x="103.1" y="335.7" width="10.5" height="11.9" fill="#b2182b" fill-opacity="0.85"/>
<rect x="169.0" y="318.5" width="10.5" height="29.1" fill="#b2182b" fill-opacity="0.85"/>
<rect x="234.8" y="337.4" width="10.5" height="10.2" fill="#b2182b" fill-opacity="0.85"/>
<rect x="300.6" y="343.1" width="10.5" height="4.5" fill="#b2182b" fill-opacity="0.85"/>
<rect x="366.4" y="337.9" width="10.5" height="9.7" fill="#b2182b" fill-opacity="0.85"/>
<rect x="432.3" y="333.6" width="10.5" height="14.0" fill="#b2182b" fill-opacity="0.85"/>
<rect x="498.1" y="177.5" width="10.5" height="170.1" fill="#b2182b" fill-opacity="0.85"/>
<rect x="563.9" y="333.2" width="10.5" height="14.4" fill="#b2182b" fill-opacity="0.85"/>
<rect x="629.8" y="337.2" width="10.5" height="10.4" fill="#b2182b" fill-opacity="0.85"/>
<rect x="695.6" y="320.6" width="10.5" height="27.0" fill="#b2182b" fill-opacity="0.85"/>
<rect x="761.4" y="326.1" width="10.5" height="21.5" fill="#b2182b" fill-opacity="0.85"/>
<rect x="827.3" y="347.5" width="10.5" height="0.1" fill="#b2182b" fill-opacity="0.85"/>
<rect x="113.6" y="340.0" width="10.5" height="7.6" fill="#1b7837" fill-opacity="0.85"/>
<rect x="179.5" y="324.9" width="10.5" height="22.7" fill="#1b7837" fill-opacity="0.85"/>
<rect x="245.3" y="340.3" width="10.5" height="7.3" fill="#1b7837" fill-opacity="0.85"/>
<rect x="311.1" y="343.3" width="10.5" height="4.3" fill="#1b7837" fill-opacity="0.85"/>
<rect x="377.0" y="340.2" width="10.5" height="7.4" fill="#1b7837" fill-opacity="0.85"/>
<rect x="442.8" y="347.6" width="10.5" height="14.0" fill="#1b7837" fill-opacity="0.85"/>
<rect x="508.6" y="178.1" width="10.5" height="169.5" fill="#1b7837" fill-opacity="0.85"/>
<rect x="574.5" y="339.0" width="10.5" height="8.6" fill="#1b7837" fill-opacity="0.85"/>
<rect x="640.3" y="339.9" width="10.5" height="7.7" fill="#1b7837" fill-opacity="0.85"/>
<rect x="706.1" y="318.8" width="10.5" height="28.8" fill="#1b7837" fill-opacity="0.85"/>
<rect x="772.0" y="333.4" width="10.5" height="14.2" fill="#1b7837" fill-opacity="0.85"/>
<rect x="837.8" y="347.6" width="10.5" height="4.3" fill="#1b7837" fill-opacity="0.85"/>
<rect x="124.2" y="341.2" width="10.5" height="6.4" fill="#d95f02" fill-opacity="0.85"/>
<rect x="190.0" y="322.5" width="10.5" height="25.1" fill="#d95f02" fill-opacity="0.85"/>
<rect x="255.8" y="338.9" width="10.5" height="8.7" fill="#d95f02" fill-opacity="0.85"/>
<rect x="321.7" y="341.1" width="10.5" height="6.5" fill="#d95f02" fill-opacity="0.85"/>
<rect x="387.5" y="341.0" width="10.5" height="6.6" fill="#d95f02" fill-opacity="0.85"/>
<rect x="453.3" y="347.6" width="10.5" height="30.9" fill="#d95f02" fill-opacity="0.85"/>
<rect x="519.2" y="179.1" width="10.5" height="168.5" fill="#d95f02" fill-opacity="0.85"/>
<rect x="585.0" y="338.0" width="10.5" height="9.6" fill="#d95f02" fill-opacity="0.85"/>
<rect x="650.8" y="338.3" width="10.5" height="9.3" fill="#d95f02" fill-opacity="0.85"/>
<rect x="716.7" y="319.5" width="10.5" height="28.1" fill="#d95f02" fill-opacity="0.85"/>
<rect x="782.5" y="333.7" width="10.5" height="13.9" fill="#d95f02" fill-opacity="0.85"/>
<rect x="848.3" y="347.6" width="10.5" height="1.1" fill="#d95f02" fill-opacity="0.85"/>
<rect x="134.7" y="106.8" width="10.5" height="240.8" fill="#6a3d9a" fill-opacity="0.85"/>
<rect x="200.6" y="181.4" width="10.5" height="166.2" fill="#6a3d9a" fill-opacity="0.85"/>
<rect x="266.4" y="270.8" width="10.5" height="76.8" fill="#6a3d9a" fill-opacity="0.85"/>
<rect x="332.2" y="283.4" width="10.5" height="64.2" fill="#6a3d9a" fill-opacity="0.85"/>
<rect x="398.0" y="297.0" width="10.5" height="50.6" fill="#6a3d9a" fill-opacity="0.85"/>
<rect x="463.9" y="127.4" width="10.5" height="220.2" fill="#6a3d9a" fill-opacity="0.85"/>
<rect x="529.7" y="33.7" width="10.5" height="313.9" fill="#6a3d9a" fill-opacity="0.85"/>
<rect x="595.5" y="287.3" width="10.5" height="60.3" fill="#6a3d9a" fill-opacity="0.85"/>
<rect x="661.4" y="296.5" width="10.5" height="51.1" fill="#6a3d9a" fill-opacity="0.85"/>
<rect x="727.2" y="274.4" width="10.5" height="73.2" fill="#6a3d9a" fill-opacity="0.85"/>
<rect x="793.0" y="272.3" width="10.5" height="75.3" fill="#6a3d9a" fill-opacity="0.85"/>
<rect x="858.9" y="245.0" width="10.5" height="102.6" fill="#6a3d9a" fill-opacity="0.85"/>
<rect x="100" y="41" width="20" height="11" fill="#1f3b73" fill-opacity="0.85"/>
<text x="126.0" y="50.0" text-anchor="start" font-family="Georgia, 'Times New Roman', serif" font-size="12" font-weight="normal" fill="#111">no trading</text>
<rect x="100" y="59" width="20" height="11" fill="#b2182b" fill-opacity="0.85"/>
<text x="126.0" y="68.0" text-anchor="start" font-family="Georgia, 'Times New Roman', serif" font-size="12" font-weight="normal" fill="#111">deterministic forecast</text>
<rect x="100" y="77" width="20" height="11" fill="#1b7837" fill-opacity="0.85"/>
<text x="126.0" y="86.0" text-anchor="start" font-family="Georgia, 'Times New Roman', serif" font-size="12" font-weight="normal" fill="#111">risk neutral</text>
<rect x="100" y="95" width="20" height="11" fill="#d95f02" fill-opacity="0.85"/>
<text x="126.0" y="104.0" text-anchor="start" font-family="Georgia, 'Times New Roman', serif" font-size="12" font-weight="normal" fill="#111">CVaR</text>
<rect x="100" y="113" width="20" height="11" fill="#6a3d9a" fill-opacity="0.85"/>
<text x="126.0" y="122.0" text-anchor="start" font-family="Georgia, 'Times New Roman', serif" font-size="12" font-weight="normal" fill="#111">perfect foresight</text>
</svg>
